<svg width="19" height="19" viewBox="0 0 19 19" fill="none" xmlns="http://www.w3.org/2000/svg">
<path d="M9.5 4.75C8.52783 4.75 0 4.6835 0 2.375C0 0.0665001 8.52783 0 9.5 0C10.4722 0 19 0.0665001 19 2.375C19 4.6835 10.4722 4.75 9.5 4.75ZM1.25717 2.375C1.83667 2.82467 4.61779 3.5625 9.5 3.5625C14.3822 3.5625 17.1633 2.82467 17.7428 2.375C17.1633 1.92533 14.3822 1.1875 9.5 1.1875C4.61779 1.1875 1.83667 1.92533 1.25717 2.375ZM9.5 9.5C8.52783 9.5 0 9.4335 0 7.125C9.22946e-05 6.97349 0.0580986 6.82775 0.162142 6.71762C0.266185 6.60749 0.408394 6.54129 0.559651 6.53259C0.710908 6.52389 0.859769 6.57334 0.975755 6.67082C1.09174 6.76829 1.16608 6.90642 1.18354 7.05692C1.54929 7.49471 4.35971 8.3125 9.5 8.3125C14.6403 8.3125 17.4507 7.49471 17.8165 7.05692C17.8339 6.90642 17.9083 6.76829 18.0242 6.67082C18.1402 6.57334 18.2891 6.52389 18.4403 6.53259C18.5916 6.54129 18.7338 6.60749 18.8379 6.71762C18.9419 6.82775 18.9999 6.97349 19 7.125C19 9.4335 10.4722 9.5 9.5 9.5ZM17.8125 7.12421C17.8125 7.125 17.8125 7.125 17.8125 7.12421V7.12421ZM1.1875 7.12421C1.1875 7.125 1.1875 7.125 1.1875 7.12421V7.12421ZM9.5 14.25C8.52783 14.25 0 14.1835 0 11.875C9.22946e-05 11.7235 0.0580986 11.5778 0.162142 11.4676C0.266185 11.3575 0.408394 11.2913 0.559651 11.2826C0.710908 11.2739 0.859769 11.3233 0.975755 11.4208C1.09174 11.5183 1.16608 11.6564 1.18354 11.8069C1.54929 12.2447 4.35971 13.0625 9.5 13.0625C14.6403 13.0625 17.4507 12.2447 17.8165 11.8069C17.8339 11.6564 17.9083 11.5183 18.0242 11.4208C18.1402 11.3233 18.2891 11.2739 18.4403 11.2826C18.5916 11.2913 18.7338 11.3575 18.8379 11.4676C18.9419 11.5778 18.9999 11.7235 19 11.875C19 14.1835 10.4722 14.25 9.5 14.25ZM17.8125 11.8742C17.8125 11.875 17.8125 11.875 17.8125 11.8742V11.8742ZM1.1875 11.8742C1.1875 11.875 1.1875 11.875 1.1875 11.8742V11.8742Z" fill="#880015"/>
<path d="M9.5 19C8.52783 19 0 18.9335 0 16.625V2.375C0 2.21753 0.0625556 2.06651 0.173905 1.95516C0.285255 1.84381 0.436278 1.78125 0.59375 1.78125C0.751222 1.78125 0.902245 1.84381 1.01359 1.95516C1.12494 2.06651 1.1875 2.21753 1.1875 2.375V16.5609C1.56829 17.001 4.37792 17.8125 9.5 17.8125C14.6221 17.8125 17.4317 17.001 17.8125 16.5609V2.375C17.8125 2.21753 17.8751 2.06651 17.9864 1.95516C18.0978 1.84381 18.2488 1.78125 18.4062 1.78125C18.5637 1.78125 18.7147 1.84381 18.8261 1.95516C18.9374 2.06651 19 2.21753 19 2.375V16.625C19 18.9335 10.4722 19 9.5 19Z" fill="#880015"/>
<path d="M3.95768 11.8748C4.39491 11.8748 4.74935 11.5204 4.74935 11.0832C4.74935 10.6459 4.39491 10.2915 3.95768 10.2915C3.52046 10.2915 3.16602 10.6459 3.16602 11.0832C3.16602 11.5204 3.52046 11.8748 3.95768 11.8748Z" fill="#880015"/>
<path d="M3.95768 7.12484C4.39491 7.12484 4.74935 6.7704 4.74935 6.33317C4.74935 5.89595 4.39491 5.5415 3.95768 5.5415C3.52046 5.5415 3.16602 5.89595 3.16602 6.33317C3.16602 6.7704 3.52046 7.12484 3.95768 7.12484Z" fill="#880015"/>
<path d="M3.95768 16.6248C4.39491 16.6248 4.74935 16.2704 4.74935 15.8332C4.74935 15.3959 4.39491 15.0415 3.95768 15.0415C3.52046 15.0415 3.16602 15.3959 3.16602 15.8332C3.16602 16.2704 3.52046 16.6248 3.95768 16.6248Z" fill="#880015"/>
</svg>
