<svg width="65" height="64" viewBox="0 0 65 64" fill="none" xmlns="http://www.w3.org/2000/svg">
<path d="M16.8834 48.5471C16.8834 48.2975 16.7842 48.0582 16.6078 47.8818C16.4313 47.7053 16.192 47.6062 15.9424 47.6062C15.6929 47.6062 15.4536 47.7053 15.2771 47.8818C15.1007 48.0582 15.0015 48.2975 15.0015 48.5471C15.0015 54.7966 18.5036 56.8441 19.1397 57.164C24.2902 60.7394 33.2129 59.5163 36.1043 53.6826C36.9944 51.9918 37.2334 50.1768 37.8083 48.437C39.8294 42.9421 45.4834 40.0798 47.7218 34.6846C50.1155 28.5847 49.1633 20.7666 46.1712 15.2096C41.8966 6.6689 31.2643 4.69016 23.4716 9.75227C17.909 13.5686 14.9225 21.1129 15.0015 28.1293C15.0015 28.3788 15.1007 28.6181 15.2771 28.7946C15.4536 28.971 15.6929 29.0702 15.9424 29.0702C16.192 29.0702 16.4313 28.971 16.6078 28.7946C16.7842 28.6181 16.8834 28.3788 16.8834 28.1293C16.8479 24.7961 17.5228 21.4936 18.863 18.4416C20.0639 15.5894 22.0253 13.1219 24.533 11.3085C31.3715 6.83544 40.8042 8.56484 44.518 16.1119C47.2504 21.1834 48.1527 28.3758 45.9821 33.9686C43.7107 39.1624 37.9325 42.2166 36.0234 47.8423C34.9555 52.2261 33.8556 55.7366 28.8443 56.9758C27.3452 57.3524 25.7843 57.4142 24.2601 57.1576C22.7359 56.9009 21.2814 56.3312 19.9884 55.4844C19.9573 55.4713 16.8834 54.059 16.8834 48.5471Z" fill="#880015"/>
<path d="M20.2925 40.4016C20.0429 40.4016 19.8036 40.5007 19.6271 40.6772C19.4507 40.8536 19.3516 41.0929 19.3516 41.3425V43.7305C19.3612 44.5694 19.6167 45.387 20.0865 46.082C20.5563 46.777 21.2197 47.3189 21.9945 47.6405C22.7693 47.9622 23.6214 48.0494 24.4453 47.8914C25.2692 47.7334 26.0287 47.3372 26.6295 46.7518C27.8697 45.6491 27.9656 43.8632 27.8866 42.3097C27.8934 41.4774 28.1178 40.6612 28.5373 39.9423C28.9569 39.2234 29.5571 38.6266 30.2784 38.2111C32.7662 36.8336 35.747 37.1893 36.9984 33.6232C37.4417 32.149 37.4541 30.5788 37.0344 29.0977C36.6146 27.6167 35.7801 26.2865 34.6292 25.2642C33.1594 24.0666 31.4087 23.2633 29.5423 22.9301C27.6759 22.5968 25.7554 22.7447 23.962 23.3597C24.8484 19.5086 29.0721 15.0534 34.999 16.7263C38.5961 17.9627 40.9662 21.9286 40.763 26.3716C40.7574 26.495 40.7761 26.6184 40.8182 26.7346C40.8602 26.8508 40.9247 26.9576 41.008 27.0488C41.0913 27.1401 41.1918 27.214 41.3037 27.2665C41.4156 27.3189 41.5367 27.3488 41.6602 27.3544C41.7836 27.36 41.9069 27.3413 42.0231 27.2992C42.1393 27.2572 42.2461 27.1927 42.3374 27.1094C42.4286 27.026 42.5026 26.9256 42.555 26.8137C42.6074 26.7018 42.6373 26.5807 42.6429 26.4572C42.8829 21.1853 39.9914 16.4525 35.6115 14.947C30.7959 13.2929 26.5834 16.3556 26.1186 16.7103C21.8064 20.0044 20.4524 26.5899 22.8264 32.7247C22.9163 32.9575 23.0951 33.145 23.3233 33.2461C23.5516 33.3471 23.8106 33.3533 24.0434 33.2633C24.2763 33.1734 24.4638 32.9946 24.5648 32.7664C24.6659 32.5381 24.6721 32.2791 24.5821 32.0463C23.773 29.9894 23.4351 27.7774 23.5932 25.5728C25.1541 24.7836 26.9113 24.467 28.6494 24.6617C30.3876 24.8564 32.0311 25.554 33.3787 26.6689C34.258 27.4427 34.8981 28.4515 35.2234 29.5766C35.5488 30.7018 35.546 31.8965 35.2154 33.0201C34.3845 35.5982 31.3755 35.2774 29.3328 36.5843C28.327 37.1656 27.4907 37.9998 26.9069 39.0042C26.3231 40.0085 26.0121 41.1481 26.0048 42.3097V43.7305C25.9924 44.3551 25.7356 44.9498 25.2895 45.3871C24.8435 45.8244 24.2437 46.0693 23.6191 46.0693C22.9944 46.0693 22.3947 45.8244 21.9486 45.3871C21.5026 44.9498 21.2458 44.3551 21.2334 43.7305V41.3425C21.2334 41.0929 21.1343 40.8536 20.9578 40.6772C20.7813 40.5007 20.542 40.4016 20.2925 40.4016Z" fill="#880015"/>
<rect x="0.0693359" y="5.94946" width="7.43934" height="82.5611" rx="3.71967" transform="rotate(-45.4807 0.0693359 5.94946)" fill="#F7E6E9"/>
<rect x="4" y="6" width="2" height="77" rx="1" transform="rotate(-45.4807 4 6)" fill="#880015"/>
</svg>
