<svg width="23" height="27" viewBox="0 0 23 27" fill="none" xmlns="http://www.w3.org/2000/svg">
<path d="M1.07655 11.0786C1.0767 11.2302 1.13698 11.3755 1.24419 11.4827C1.35152 11.5901 1.4971 11.6504 1.6489 11.6504C1.80069 11.6504 1.94627 11.5901 2.05361 11.4827C2.16094 11.3754 2.22124 11.2298 2.22125 11.078L2.22124 11.0769C2.2036 9.41788 2.53952 7.77408 3.20662 6.25494L3.20663 6.25494L3.20722 6.25353C3.80265 4.83931 4.77497 3.61575 6.01811 2.71628C9.40906 0.499764 14.0711 1.36384 15.9043 5.08935L15.9043 5.08938L15.906 5.09263C17.2658 7.61652 17.7131 11.1954 16.6366 13.9713C16.1105 15.173 15.2045 16.1447 14.278 17.1384C14.2147 17.2062 14.1513 17.2742 14.0879 17.3424C13.1012 18.4037 12.1219 19.5072 11.635 20.942L11.6346 20.9419L11.6326 20.9505C11.3641 22.0524 11.0952 23.0268 10.5864 23.8039C10.0815 24.5749 9.33651 25.1568 8.1017 25.4621L8.10135 25.4622C7.36219 25.6479 6.59258 25.6784 5.84105 25.5518C5.08951 25.4253 4.37235 25.1444 3.73477 24.7269L3.72728 24.722L3.71904 24.7185C3.71925 24.7186 3.71908 24.7185 3.71853 24.7182C3.68476 24.7021 2.22124 24.0036 2.22124 21.3279C2.22124 21.1761 2.16094 21.0305 2.0536 20.9232C1.94627 20.8159 1.80069 20.7556 1.6489 20.7556C1.4971 20.7556 1.35152 20.8159 1.24419 20.9232C1.13685 21.0305 1.07655 21.1761 1.07655 21.3279C1.07655 24.494 2.84461 25.5577 3.20263 25.7398C4.52023 26.6517 6.3116 26.9482 7.9553 26.6495C9.6013 26.3504 11.1157 25.4508 11.8594 23.9515C12.0875 23.5179 12.2313 23.0701 12.3538 22.6251C12.3931 22.4823 12.43 22.3407 12.4667 22.1998C12.5452 21.8984 12.6227 21.6009 12.7202 21.3056C13.2196 19.9489 14.1681 18.9142 15.1461 17.8703C15.1732 17.8415 15.2002 17.8127 15.2273 17.7838C16.1757 16.7722 17.1405 15.7431 17.6948 14.4072L17.6955 14.4054C18.9093 11.3121 18.4259 7.3574 16.9127 4.54613M1.07655 11.0786C1.07655 11.0784 1.07655 11.0782 1.07655 11.078H1.17655L1.07656 11.0791C1.07655 11.0789 1.07655 11.0788 1.07655 11.0786ZM1.07655 11.0786C1.03678 7.53315 2.54479 3.70982 5.37204 1.77015L5.37412 1.76872L5.37414 1.76875C9.32789 -0.799613 14.7357 0.198393 16.9127 4.54613M16.9127 4.54613C16.9125 4.54569 16.9123 4.54525 16.912 4.54481L16.824 4.59222L16.9134 4.54746C16.9132 4.54702 16.9129 4.54658 16.9127 4.54613Z" fill="white" stroke="#880015" stroke-width="0.2"/>
<path d="M3.25937 18.91L3.25938 18.9112C3.26444 19.3518 3.39869 19.7813 3.64549 20.1464C3.89229 20.5116 4.24079 20.7962 4.64782 20.9652C5.05484 21.1342 5.5025 21.18 5.93532 21.097C6.3674 21.0142 6.76573 20.8066 7.08114 20.4999C7.74011 19.9124 7.78335 18.9716 7.74405 18.1947C7.74785 17.7952 7.85573 17.4037 8.05707 17.0587C8.25876 16.7131 8.54723 16.4261 8.89392 16.2263C9.19742 16.0583 9.5175 15.9423 9.84197 15.8342C9.90191 15.8143 9.96213 15.7946 10.0224 15.7748C10.2863 15.6884 10.5521 15.6013 10.8042 15.4913C11.4326 15.2171 11.9874 14.7959 12.3126 13.8692L12.3127 13.8692L12.314 13.8649C12.542 13.1065 12.5484 12.2988 12.3325 11.537C12.1166 10.7751 11.6873 10.0909 11.0953 9.56497L11.0953 9.5649L11.092 9.56221C10.341 8.95028 9.44646 8.53981 8.49279 8.36955C7.59931 8.21004 6.68155 8.2663 5.81569 8.53247C6.06633 7.63907 6.67359 6.69943 7.55408 6.05965C8.4883 5.38083 9.72988 5.03937 11.1846 5.44914C12.9381 6.05338 14.1086 7.99606 14.0082 10.1911L14.0082 10.1911C14.0048 10.2662 14.0162 10.3412 14.0417 10.4119C14.0673 10.4826 14.1066 10.5476 14.1572 10.6031C14.2079 10.6586 14.269 10.7036 14.3371 10.7355C14.4052 10.7674 14.4788 10.7855 14.5539 10.7889C14.629 10.7924 14.704 10.781 14.7747 10.7554C14.8454 10.7298 14.9103 10.6906 14.9659 10.6399C15.0214 10.5892 15.0663 10.5281 15.0982 10.46C15.1301 10.392 15.1483 10.3183 15.1517 10.2432C15.2738 7.56069 13.8027 5.13862 11.5545 4.36589L11.5545 4.36588C10.3181 3.94117 9.16085 4.12284 8.28698 4.43055C7.41351 4.73812 6.81714 5.17355 6.69582 5.26614L6.69578 5.26617C4.48663 6.95376 3.80724 10.3116 5.01049 13.4211C5.06522 13.5627 5.17394 13.6767 5.31276 13.7382C5.45159 13.7996 5.60915 13.8034 5.75077 13.7487C5.89239 13.6939 6.00647 13.5852 6.06792 13.4464C6.12937 13.3075 6.13315 13.15 6.07843 13.0084L6.07821 13.0078C5.68445 12.0068 5.51603 10.9316 5.5846 9.85864C6.33803 9.4898 7.1814 9.34321 8.01584 9.43668C8.86855 9.5322 9.67491 9.87428 10.3362 10.421C10.7627 10.7967 11.0732 11.2864 11.2311 11.8324C11.3891 12.3785 11.3878 12.9584 11.2276 13.5038C11.033 14.1061 10.5875 14.3737 10.0405 14.5733C9.87462 14.6338 9.70613 14.6858 9.53351 14.7392C9.41569 14.7756 9.29595 14.8126 9.17381 14.8533C8.87953 14.9513 8.58432 15.0671 8.31804 15.2371C7.79889 15.5376 7.36722 15.9685 7.06577 16.4871C6.76393 17.0064 6.60314 17.5955 6.59934 18.1961V18.1968V18.909C6.59338 19.196 6.47527 19.4692 6.27027 19.6702C6.06504 19.8714 5.7891 19.9841 5.5017 19.9841C5.2143 19.9841 4.93837 19.8714 4.73314 19.6702C4.52814 19.4692 4.41002 19.196 4.40407 18.909V17.7112C4.40407 17.5594 4.34377 17.4138 4.23643 17.3065C4.1291 17.1991 3.98352 17.1388 3.83172 17.1388C3.67993 17.1388 3.53435 17.1991 3.42701 17.3065C3.31968 17.4138 3.25937 17.5594 3.25937 17.7112L3.25937 18.91Z" fill="white" stroke="#880015" stroke-width="0.2"/>
<path d="M17.324 20.4361V20.436C17.1988 20.4362 17.0748 20.4115 16.9591 20.3636C16.8434 20.3157 16.7384 20.2454 16.65 20.1568L17.324 20.4361ZM17.324 20.4361L17.3319 20.436M17.324 20.4361L17.3319 20.436M17.3319 20.436C17.5181 20.4329 17.6993 20.3754 17.8532 20.2707C18.0072 20.1659 18.1272 20.0185 18.1985 19.8464C18.2697 19.6744 18.2891 19.4852 18.2543 19.3023C18.2195 19.1194 18.132 18.9506 18.0025 18.8168L18.0025 18.8167M17.3319 20.436L18.0025 18.8167M18.0025 18.8167L17.9971 18.8112M18.0025 18.8167L17.9971 18.8112M17.9971 18.8112C16.9949 17.8068 16.432 16.4458 16.432 15.0268C16.432 13.6091 16.9939 12.2492 17.9945 11.245M17.9971 18.8112L17.9945 11.245M17.9945 11.245C18.0835 11.158 18.1547 11.0543 18.2038 10.9399C18.2537 10.8237 18.28 10.6988 18.2811 10.5724C18.2822 10.446 18.2581 10.3206 18.2102 10.2036C18.1624 10.0866 18.0917 9.9803 18.0023 9.89091C17.9129 9.80152 17.8066 9.73083 17.6896 9.68296L17.5003 10.1457L17.6896 9.68296C17.5726 9.63509 17.4472 9.611 17.3208 9.6121C17.1944 9.61319 17.0695 9.63946 16.9533 9.68935C16.8386 9.73862 16.7347 9.80996 16.6476 9.8993C15.2905 11.2606 14.5283 13.1045 14.5283 15.0268C14.5283 16.9502 15.2913 18.7951 16.6499 20.1566L17.9945 11.245Z" fill="white" stroke="#880015"/>
<path d="M21.3461 17.4641V17.464C21.2209 17.4643 21.0969 17.4398 20.9812 17.392L21.3461 17.4641ZM21.3461 17.4641L21.3534 17.4639M21.3461 17.4641L21.3534 17.4639M21.3534 17.4639C21.5396 17.4608 21.7208 17.4034 21.8748 17.2986C22.0287 17.1939 22.1487 17.0464 22.22 16.8744L21.758 16.6831M21.3534 17.4639L21.758 16.6831M21.758 16.6831L22.22 16.8744C22.2912 16.7023 22.3106 16.5132 22.2758 16.3303C22.241 16.1474 22.1535 15.9786 22.024 15.8447L22.0241 15.8447M21.758 16.6831L22.0241 15.8447M22.0241 15.8447L22.0187 15.8393M22.0241 15.8447L22.0187 15.8393M22.0187 15.8393C21.8034 15.6235 21.6826 15.3311 21.6826 15.0263C21.6826 14.7215 21.8034 14.4292 22.0187 14.2133L22.0187 14.2134M22.0187 15.8393L22.0187 14.2134M22.0187 14.2134L22.0243 14.2076M22.0187 14.2134L22.0243 14.2076M22.0243 14.2076C22.1977 14.0281 22.2937 13.7876 22.2915 13.538C22.2893 13.2883 22.1892 13.0496 22.0127 12.873C21.8362 12.6965 21.5974 12.5964 21.3478 12.5942C21.0981 12.5921 20.8576 12.688 20.6781 12.8614L20.678 12.8614M22.0243 14.2076L20.678 12.8614M20.678 12.8614L20.6715 12.8679M20.678 12.8614L20.6715 12.8679M20.6715 12.8679C20.0998 13.4408 19.7786 14.2171 19.7786 15.0265C19.7786 15.836 20.0998 16.6123 20.6715 17.1852L20.6719 17.1856M20.6715 12.8679L20.6719 17.1856M20.6719 17.1856C20.7604 17.2741 20.8655 17.3442 20.9812 17.392L20.6719 17.1856ZM18.6603 18.6706L18.6603 18.6707L18.6669 18.6771C18.8465 18.8505 19.087 18.9465 19.3366 18.9443C19.5862 18.9421 19.825 18.842 20.0015 18.6655L19.648 18.3119L20.0015 18.6655C20.1781 18.489 20.2782 18.2502 20.2803 18.0006C20.2825 17.7509 20.1866 17.5104 20.0131 17.3309L20.0132 17.3308L20.0075 17.3251C19.3988 16.715 19.057 15.8884 19.057 15.0265C19.057 14.166 19.3979 13.3404 20.0049 12.7306C20.0939 12.6435 20.165 12.5399 20.2142 12.4255C20.2641 12.3093 20.2904 12.1844 20.2915 12.058C20.2926 11.9316 20.2685 11.8062 20.2206 11.6892C20.1727 11.5722 20.102 11.4659 20.0126 11.3765L20.0126 11.3765C19.9233 11.2871 19.817 11.2164 19.7 11.1686C19.583 11.1207 19.4576 11.0966 19.3312 11.0977C19.2048 11.0988 19.0798 11.1251 18.9637 11.175C18.849 11.2242 18.7451 11.2956 18.6579 11.3849C17.6944 12.3519 17.1533 13.6614 17.1533 15.0265C17.1533 16.3929 17.6953 17.7034 18.6603 18.6706Z" fill="white" stroke="#880015"/>
</svg>
