<svg width="25" height="19" viewBox="0 0 25 19" fill="none" xmlns="http://www.w3.org/2000/svg">
<path d="M22.5333 0H2.0485C0.918696 0 0 0.918696 0 2.0485V16.3879C0 17.5176 0.918696 18.4363 2.0485 18.4363H22.5333C23.6631 18.4363 24.5818 17.5176 24.5818 16.3878V2.0485C24.5818 0.918696 23.6631 0 22.5333 0Z" fill="#E5CDAD"/>
<path d="M15.3789 9.18077C18.0396 6.76134 22.1422 3.00796 23.5001 1.76514C23.5271 1.85684 23.5574 1.94792 23.5574 2.04826V16.3877C23.5574 16.4823 23.5274 16.5675 23.5033 16.6546C22.1346 15.3493 18.0308 11.4585 15.3789 9.18077Z" fill="white"/>
<path d="M22.5329 1.02441C22.6083 1.02441 22.6748 1.05192 22.7457 1.06748C20.9722 2.6906 15.0916 8.07036 13.0336 9.92451C12.8726 10.0696 12.6131 10.2426 12.2905 10.2426C11.9679 10.2426 11.7083 10.0696 11.5468 9.92403C9.48912 8.07017 3.60816 2.69012 1.83496 1.06758C1.90592 1.05202 1.97256 1.02446 2.04808 1.02446L22.5329 1.02441Z" fill="white"/>
<path d="M1.07847 16.655C1.05433 16.5679 1.02441 16.4827 1.02441 16.388V2.0487C1.02441 1.94836 1.05466 1.85733 1.08174 1.76562C2.43912 3.00797 6.54235 6.76168 9.20295 9.18112C6.55095 11.4591 2.44665 15.3503 1.07847 16.655Z" fill="white"/>
<path d="M2.04832 17.412C1.96651 17.412 1.89377 17.3834 1.81738 17.3652C3.23117 16.0174 7.36158 12.1038 9.96692 9.875C10.2646 10.1453 10.5628 10.4151 10.8614 10.6844C11.2835 11.0655 11.7776 11.2665 12.2907 11.2665C12.8039 11.2665 13.2979 11.0654 13.7195 10.6849C14.0183 10.4154 14.3166 10.1454 14.6145 9.875C17.22 12.1036 21.3498 16.0169 22.764 17.3652C22.6877 17.3834 22.615 17.412 22.5331 17.412H2.04832Z" fill="white"/>
</svg>
