<svg width="19" height="19" viewBox="0 0 19 19" fill="none" xmlns="http://www.w3.org/2000/svg">
<path d="M4.2751 11.7218L3.63615 14.1071L1.30082 14.1565C0.602903 12.862 0.207031 11.3809 0.207031 9.80705C0.207031 8.28512 0.577162 6.84991 1.23324 5.58618H1.23375L3.31284 5.96735L4.22362 8.03398C4.03299 8.58971 3.9291 9.18628 3.9291 9.80705C3.92917 10.4808 4.05121 11.1263 4.2751 11.7218Z" fill="#FBB75D"/>
<path d="M18.4028 8.09253C18.5082 8.64773 18.5631 9.2211 18.5631 9.80709C18.5631 10.4642 18.494 11.1051 18.3624 11.7234C17.9156 13.8273 16.7482 15.6644 15.131 16.9644L15.1305 16.9639L12.5117 16.8303L12.1411 14.5166C13.2142 13.8873 14.0529 12.9024 14.4946 11.7234H9.58691V8.09253H18.4028Z" fill="#518EF8"/>
<path d="M15.1303 16.9639L15.1308 16.9644C13.5579 18.2287 11.5599 18.9851 9.38497 18.9851C5.88977 18.9851 2.85096 17.0315 1.30078 14.1566L4.27506 11.7219C5.05013 13.7905 7.04559 15.263 9.38497 15.263C10.3905 15.263 11.3325 14.9912 12.1409 14.5167L15.1303 16.9639Z" fill="#28B446"/>
<path d="M15.2434 2.74209L12.2702 5.17627C11.4336 4.65334 10.4446 4.35125 9.38516 4.35125C6.99283 4.35125 4.96005 5.89132 4.22381 8.03406L1.2339 5.58626H1.2334C2.76089 2.64124 5.83802 0.62915 9.38516 0.62915C11.6121 0.62915 13.6539 1.4224 15.2434 2.74209Z" fill="#880015"/>
</svg>
