<svg width="61" height="61" viewBox="0 0 61 61" fill="none" xmlns="http://www.w3.org/2000/svg">
<path d="M33.3173 12.7369C33.3173 14.2902 32.0538 15.5542 30.5001 15.5542C28.9467 15.5542 27.6828 14.2902 27.6828 12.7369C27.6828 11.1831 28.9467 9.91914 30.5001 9.91914C32.0534 9.91914 33.3173 11.1831 33.3173 12.7369ZM31.6302 12.7369C31.6302 12.1136 31.1234 11.6062 30.5001 11.6062C29.8767 11.6062 29.3699 12.1136 29.3699 12.7369C29.3699 13.3602 29.8767 13.8671 30.5001 13.8671C31.1234 13.8671 31.6302 13.3597 31.6302 12.7369Z" fill="#880015" stroke="#FFF3F5" stroke-width="0.1"/>
<mask id="path-2-inside-1_178_636" fill="white">
<path d="M60.1064 54.8956H59.0263V51.8417C59.0263 51.3485 58.626 50.9481 58.1328 50.9481H55.0787V47.8942C55.0787 47.6572 54.9846 47.4299 54.817 47.2624C54.6494 47.0948 54.4221 47.0007 54.1852 47.0007H53.1054V27.4462H54.1852C54.4221 27.4462 54.6494 27.3521 54.817 27.1845C54.9846 27.0169 55.0787 26.7897 55.0787 26.5527V23.4987H58.1326C58.3696 23.4987 58.5969 23.4046 58.7645 23.237C58.9321 23.0695 59.0262 22.8422 59.0262 22.6052V18.6578C59.0262 18.4208 58.9321 18.1936 58.7645 18.026C58.5969 17.8584 58.3696 17.7643 58.1326 17.7643H56.4381L31.0087 0.158854C30.8592 0.0554142 30.6818 0 30.5 0C30.3182 0 30.1408 0.0554142 29.9913 0.158854L4.56225 17.7643H2.86724C2.63025 17.7643 2.40297 17.8584 2.2354 18.026C2.06783 18.1936 1.97368 18.4208 1.97368 18.6578V22.6052C1.97368 23.0985 2.374 23.4987 2.86724 23.4987H5.92129V26.5527C5.92129 27.0459 6.3216 27.4462 6.81484 27.4462H7.89509V47.0008H6.81484C6.57786 47.0008 6.35058 47.0949 6.183 47.2625C6.01543 47.4301 5.92129 47.6573 5.92129 47.8943V50.9481H2.86724C2.374 50.9481 1.97368 51.3485 1.97368 51.8417V54.8956H0.893555C0.776198 54.8956 0.659983 54.9187 0.551551 54.9636C0.443118 55.0084 0.344595 55.0743 0.261611 55.1572C0.178628 55.2402 0.112811 55.3388 0.0679222 55.4472C0.0230335 55.5556 -4.68992e-05 55.6718 7.15482e-08 55.7892V59.7362C7.15482e-08 60.2299 0.399717 60.6297 0.893555 60.6297H60.1064C60.6003 60.6297 61 60.2299 61 59.7362V55.7891C61 55.5521 60.9059 55.3248 60.7383 55.1572C60.5707 54.9897 60.3434 54.8955 60.1064 54.8955V54.8956ZM53.2916 50.9481H45.2103V48.7878H53.2916V50.9481ZM47.1834 47.0007V27.4462H51.3179V47.0008L47.1834 47.0007ZM53.2917 25.6591H45.2102V23.4987H53.2916L53.2917 25.6591ZM44.3166 27.4462H45.3963V47.0008H44.3166C44.1993 47.0007 44.083 47.0238 43.9746 47.0687C43.8662 47.1136 43.7677 47.1794 43.6847 47.2624C43.6017 47.3454 43.5359 47.4439 43.491 47.5523C43.4461 47.6608 43.423 47.777 43.4231 47.8943V50.9481H36.3281V47.8942C36.3281 47.6572 36.234 47.4299 36.0664 47.2624C35.8988 47.0948 35.6716 47.0007 35.4346 47.0007H34.3544V27.4462H35.4346C35.9278 27.4462 36.3281 27.0459 36.3281 26.5527V23.4987H43.4229V26.5527C43.4229 26.7897 43.5171 27.0169 43.6847 27.1845C43.8522 27.3521 44.0795 27.4462 44.3165 27.4462H44.3166ZM26.4595 23.4987H34.541V25.6591H26.4595V23.4987ZM28.4327 27.4462H32.5673V47.0008H28.4327V27.4462ZM34.541 48.7879V50.9481H26.4595V48.7878L34.541 48.7879ZM3.76079 19.5513H19.3544C19.5914 19.5513 19.8187 19.4571 19.9862 19.2895C20.1538 19.122 20.2479 18.8947 20.2479 18.6577C20.2479 18.1639 19.8482 17.7641 19.3544 17.7641H7.70185L30.5 1.98051L53.2987 17.7643H22.9286C22.6916 17.7643 22.4643 17.8584 22.2968 18.026C22.1292 18.1936 22.0351 18.4208 22.0351 18.6578C22.0351 18.8948 22.1292 19.1221 22.2968 19.2897C22.4643 19.4572 22.6916 19.5514 22.9286 19.5514H57.2392V21.7116H3.76079V19.5513ZM7.7084 23.4987H15.7904V25.6591H7.7084V23.4987ZM13.8167 27.4462V47.0008H9.68208V27.4462H13.8167ZM7.7084 48.7879H15.7904V50.9481H7.7084V48.7879ZM16.684 47.0008H15.6038V27.4462H16.684C17.1772 27.4462 17.5775 27.0459 17.5775 26.5527V23.4987H24.6724V26.5527C24.6724 26.7897 24.7665 27.0169 24.9341 27.1845C25.1016 27.3521 25.3289 27.4462 25.5659 27.4462H26.6457V47.0008H25.566C25.4487 47.0007 25.3325 47.0238 25.224 47.0687C25.1156 47.1136 25.0171 47.1794 24.9341 47.2624C24.8511 47.3454 24.7853 47.4439 24.7404 47.5523C24.6955 47.6608 24.6724 47.777 24.6725 47.8943V50.9481H17.5777V47.8942C17.5777 47.6572 17.4835 47.4299 17.3159 47.2624C17.1484 47.0948 16.9211 47.0007 16.6841 47.0007L16.684 47.0008ZM3.76079 52.7351H57.2392V54.8955H3.76079V52.7351ZM59.2129 58.8431H1.78711V56.6827H59.2129V58.8431Z"/>
</mask>
<path d="M60.1064 54.8956H59.0263V51.8417C59.0263 51.3485 58.626 50.9481 58.1328 50.9481H55.0787V47.8942C55.0787 47.6572 54.9846 47.4299 54.817 47.2624C54.6494 47.0948 54.4221 47.0007 54.1852 47.0007H53.1054V27.4462H54.1852C54.4221 27.4462 54.6494 27.3521 54.817 27.1845C54.9846 27.0169 55.0787 26.7897 55.0787 26.5527V23.4987H58.1326C58.3696 23.4987 58.5969 23.4046 58.7645 23.237C58.9321 23.0695 59.0262 22.8422 59.0262 22.6052V18.6578C59.0262 18.4208 58.9321 18.1936 58.7645 18.026C58.5969 17.8584 58.3696 17.7643 58.1326 17.7643H56.4381L31.0087 0.158854C30.8592 0.0554142 30.6818 0 30.5 0C30.3182 0 30.1408 0.0554142 29.9913 0.158854L4.56225 17.7643H2.86724C2.63025 17.7643 2.40297 17.8584 2.2354 18.026C2.06783 18.1936 1.97368 18.4208 1.97368 18.6578V22.6052C1.97368 23.0985 2.374 23.4987 2.86724 23.4987H5.92129V26.5527C5.92129 27.0459 6.3216 27.4462 6.81484 27.4462H7.89509V47.0008H6.81484C6.57786 47.0008 6.35058 47.0949 6.183 47.2625C6.01543 47.4301 5.92129 47.6573 5.92129 47.8943V50.9481H2.86724C2.374 50.9481 1.97368 51.3485 1.97368 51.8417V54.8956H0.893555C0.776198 54.8956 0.659983 54.9187 0.551551 54.9636C0.443118 55.0084 0.344595 55.0743 0.261611 55.1572C0.178628 55.2402 0.112811 55.3388 0.0679222 55.4472C0.0230335 55.5556 -4.68992e-05 55.6718 7.15482e-08 55.7892V59.7362C7.15482e-08 60.2299 0.399717 60.6297 0.893555 60.6297H60.1064C60.6003 60.6297 61 60.2299 61 59.7362V55.7891C61 55.5521 60.9059 55.3248 60.7383 55.1572C60.5707 54.9897 60.3434 54.8955 60.1064 54.8955V54.8956ZM53.2916 50.9481H45.2103V48.7878H53.2916V50.9481ZM47.1834 47.0007V27.4462H51.3179V47.0008L47.1834 47.0007ZM53.2917 25.6591H45.2102V23.4987H53.2916L53.2917 25.6591ZM44.3166 27.4462H45.3963V47.0008H44.3166C44.1993 47.0007 44.083 47.0238 43.9746 47.0687C43.8662 47.1136 43.7677 47.1794 43.6847 47.2624C43.6017 47.3454 43.5359 47.4439 43.491 47.5523C43.4461 47.6608 43.423 47.777 43.4231 47.8943V50.9481H36.3281V47.8942C36.3281 47.6572 36.234 47.4299 36.0664 47.2624C35.8988 47.0948 35.6716 47.0007 35.4346 47.0007H34.3544V27.4462H35.4346C35.9278 27.4462 36.3281 27.0459 36.3281 26.5527V23.4987H43.4229V26.5527C43.4229 26.7897 43.5171 27.0169 43.6847 27.1845C43.8522 27.3521 44.0795 27.4462 44.3165 27.4462H44.3166ZM26.4595 23.4987H34.541V25.6591H26.4595V23.4987ZM28.4327 27.4462H32.5673V47.0008H28.4327V27.4462ZM34.541 48.7879V50.9481H26.4595V48.7878L34.541 48.7879ZM3.76079 19.5513H19.3544C19.5914 19.5513 19.8187 19.4571 19.9862 19.2895C20.1538 19.122 20.2479 18.8947 20.2479 18.6577C20.2479 18.1639 19.8482 17.7641 19.3544 17.7641H7.70185L30.5 1.98051L53.2987 17.7643H22.9286C22.6916 17.7643 22.4643 17.8584 22.2968 18.026C22.1292 18.1936 22.0351 18.4208 22.0351 18.6578C22.0351 18.8948 22.1292 19.1221 22.2968 19.2897C22.4643 19.4572 22.6916 19.5514 22.9286 19.5514H57.2392V21.7116H3.76079V19.5513ZM7.7084 23.4987H15.7904V25.6591H7.7084V23.4987ZM13.8167 27.4462V47.0008H9.68208V27.4462H13.8167ZM7.7084 48.7879H15.7904V50.9481H7.7084V48.7879ZM16.684 47.0008H15.6038V27.4462H16.684C17.1772 27.4462 17.5775 27.0459 17.5775 26.5527V23.4987H24.6724V26.5527C24.6724 26.7897 24.7665 27.0169 24.9341 27.1845C25.1016 27.3521 25.3289 27.4462 25.5659 27.4462H26.6457V47.0008H25.566C25.4487 47.0007 25.3325 47.0238 25.224 47.0687C25.1156 47.1136 25.0171 47.1794 24.9341 47.2624C24.8511 47.3454 24.7853 47.4439 24.7404 47.5523C24.6955 47.6608 24.6724 47.777 24.6725 47.8943V50.9481H17.5777V47.8942C17.5777 47.6572 17.4835 47.4299 17.3159 47.2624C17.1484 47.0948 16.9211 47.0007 16.6841 47.0007L16.684 47.0008ZM3.76079 52.7351H57.2392V54.8955H3.76079V52.7351ZM59.2129 58.8431H1.78711V56.6827H59.2129V58.8431Z" fill="#880015" stroke="#FFF3F5" stroke-width="0.2" mask="url(#path-2-inside-1_178_636)"/>
</svg>
