<svg width="61" height="53" viewBox="0 0 61 53" fill="none" xmlns="http://www.w3.org/2000/svg">
<path d="M16.7822 10.4488V5.18304C16.7822 3.08729 18.497 1.37256 20.5927 1.37256H40.4074C42.5033 1.37256 44.2179 3.08729 44.2179 5.18304V10.4488M56.6349 27.4778V47.6702C56.6349 49.6211 55.038 51.2179 53.0872 51.2179H7.91295C5.96206 51.2179 4.36523 49.6214 4.36523 47.6702V27.5961" stroke="#880015" stroke-width="2.2" stroke-miterlimit="22.9256" stroke-linecap="round" stroke-linejoin="round"/>
<path d="M25.7697 33.4497C13.2594 32.7344 2 29.157 2 22.7175V14.3216C2 12.3677 3.59363 10.7739 5.54771 10.7739H55.4522C57.4062 10.7739 58.9999 12.3678 58.9999 14.3216V22.7175C58.9999 29.1973 47.5983 32.7791 34.9937 33.4628" stroke="#880015" stroke-width="2.2" stroke-miterlimit="22.9256" stroke-linecap="round" stroke-linejoin="round"/>
<path fill-rule="evenodd" clip-rule="evenodd" d="M26.124 29.9316H34.875V34.0115C34.875 36.2554 33.0391 38.0914 30.7952 38.0914H30.2039C27.96 38.0914 26.124 36.2554 26.124 34.0115V29.9316Z" stroke="#880015" stroke-width="2.2" stroke-miterlimit="22.9256" stroke-linecap="round" stroke-linejoin="round"/>
</svg>
