<svg width="47" height="53" viewBox="0 0 47 53" fill="none" xmlns="http://www.w3.org/2000/svg">
<path d="M1.88336 42.3752C1.88336 42.1257 1.78423 41.8863 1.60777 41.7099C1.43131 41.5334 1.19199 41.4343 0.942443 41.4343C0.692897 41.4343 0.453572 41.5334 0.277117 41.7099C0.100661 41.8863 0.00152939 42.1257 0.00152939 42.3752C0.00152939 48.6248 3.50361 50.6722 4.13967 50.9921C9.29023 54.5676 18.2129 53.3444 21.1043 47.5107C21.9944 45.8199 22.2334 44.0049 22.8083 42.2651C24.8294 36.7702 30.4834 33.9079 32.7218 28.5127C35.1155 22.4128 34.1633 14.5947 31.1712 9.0377C26.8966 0.497023 16.2643 -1.48172 8.47164 3.5804C2.90895 7.39674 -0.0775074 14.941 0.00152939 21.9574C0.00152939 22.2069 0.100661 22.4463 0.277117 22.6227C0.453572 22.7992 0.692897 22.8983 0.942443 22.8983C1.19199 22.8983 1.43131 22.7992 1.60777 22.6227C1.78423 22.4463 1.88336 22.2069 1.88336 21.9574C1.84794 18.6242 2.5228 15.3218 3.86304 12.2697C5.0639 9.41754 7.02526 6.95006 9.53299 5.13667C16.3715 0.663565 25.8042 2.39296 29.518 9.94003C32.2504 15.0116 33.1527 22.2039 30.9821 27.7967C28.7107 32.9905 22.9325 36.0447 21.0234 41.6705C19.9555 46.0542 18.8556 49.5647 13.8443 50.8039C12.3452 51.1805 10.7843 51.2424 9.26013 50.9857C7.73593 50.729 6.28145 50.1593 4.98837 49.3126C4.95732 49.2994 1.88336 47.8871 1.88336 42.3752Z" fill="#1C8CCB"/>
<path d="M5.29248 34.2297C5.04293 34.2297 4.80361 34.3288 4.62715 34.5053C4.45069 34.6817 4.35156 34.9211 4.35156 35.1706V37.5587C4.36119 38.3975 4.61674 39.2151 5.08653 39.9101C5.55633 40.6051 6.21972 41.147 6.99451 41.4686C7.7693 41.7903 8.62144 41.8775 9.44533 41.7195C10.2692 41.5616 11.0287 41.1653 11.6295 40.5799C12.8697 39.4772 12.9656 37.6913 12.8866 36.1379C12.8934 35.3055 13.1178 34.4894 13.5373 33.7704C13.9569 33.0515 14.5571 32.4547 15.2784 32.0393C17.7662 30.6618 20.747 31.0174 21.9984 27.4514C22.4417 25.9772 22.4541 24.4069 22.0344 22.9259C21.6146 21.4448 20.7801 20.1147 19.6292 19.0923C18.1594 17.8947 16.4087 17.0914 14.5423 16.7582C12.6759 16.425 10.7554 16.5729 8.96204 17.1879C9.84838 13.3367 14.0721 8.88148 19.999 10.5544C23.5961 11.7908 25.9662 15.7567 25.763 20.1997C25.7574 20.3232 25.7761 20.4465 25.8182 20.5627C25.8602 20.6789 25.9247 20.7857 26.008 20.8769C26.0913 20.9682 26.1918 21.0422 26.3037 21.0946C26.4156 21.147 26.5367 21.1769 26.6602 21.1825C26.7836 21.1881 26.9069 21.1694 27.0231 21.1274C27.1393 21.0853 27.2461 21.0208 27.3374 20.9375C27.4286 20.8542 27.5026 20.7537 27.555 20.6418C27.6074 20.5299 27.6373 20.4088 27.6429 20.2854C27.8829 15.0134 24.9914 10.2806 20.6115 8.77516C15.7959 7.12103 11.5834 10.1837 11.1186 10.5384C6.80641 13.8326 5.45243 20.418 7.82636 26.5528C7.91632 26.7856 8.09509 26.9732 8.32333 27.0742C8.55158 27.1752 8.8106 27.1814 9.04343 27.0915C9.27626 27.0015 9.46381 26.8227 9.56483 26.5945C9.66585 26.3662 9.67206 26.1072 9.5821 25.8744C8.773 23.8175 8.43508 21.6055 8.5932 19.4009C10.1541 18.6118 11.9113 18.2951 13.6494 18.4898C15.3876 18.6845 17.0311 19.3821 18.3787 20.4971C19.258 21.2708 19.8981 22.2796 20.2234 23.4047C20.5488 24.5299 20.546 25.7246 20.2154 26.8482C19.3845 29.4263 16.3755 29.1055 14.3328 30.4124C13.327 30.9937 12.4907 31.828 11.9069 32.8323C11.3231 33.8367 11.0121 34.9762 11.0048 36.1379V37.5587C10.9924 38.1832 10.7356 38.7779 10.2895 39.2152C9.84346 39.6525 9.24372 39.8974 8.61908 39.8974C7.99444 39.8974 7.3947 39.6525 6.94865 39.2152C6.50259 38.7779 6.24579 38.1832 6.23339 37.5587V35.1706C6.23339 34.9211 6.13426 34.6817 5.9578 34.5053C5.78135 34.3288 5.54202 34.2297 5.29248 34.2297Z" fill="#1C8CCB"/>
<path d="M38.4108 51.8791C38.5813 51.8763 38.7473 51.8237 38.8883 51.7277C39.0293 51.6318 39.1392 51.4968 39.2044 51.3392C39.2697 51.1816 39.2875 51.0084 39.2556 50.8409C39.2237 50.6734 39.1435 50.5188 39.025 50.3962C36.9193 48.2857 35.7367 45.4262 35.7367 42.4449C35.7367 39.4636 36.9193 36.604 39.025 34.4936C39.1079 34.4134 39.1741 34.3176 39.2196 34.2116C39.2652 34.1056 39.2891 33.9916 39.2901 33.8763C39.2911 33.7609 39.2692 33.6465 39.2255 33.5398C39.1818 33.433 39.1173 33.336 39.0357 33.2544C38.9542 33.1729 38.8572 33.1084 38.7504 33.0647C38.6436 33.021 38.5293 32.999 38.4139 33C38.2986 33.001 38.1846 33.025 38.0786 33.0705C37.9726 33.1161 37.8767 33.1822 37.7966 33.2652C35.3654 35.7016 34 39.003 34 42.4449C34 45.8868 35.3654 49.1882 37.7966 51.6246C37.8772 51.7054 37.9729 51.7694 38.0783 51.8131C38.1837 51.8568 38.2967 51.8792 38.4108 51.8791Z" fill="#1C8CCB"/>
<path d="M41.6604 48.7691C41.8242 48.9274 42.0436 49.0149 42.2714 49.013C42.4992 49.011 42.7171 48.9196 42.8781 48.7586C43.0392 48.5975 43.1306 48.3796 43.1325 48.1518C43.1345 47.9241 43.047 47.7046 42.8887 47.5408C41.5394 46.1881 40.7816 44.3555 40.7816 42.4449C40.7816 40.5343 41.5394 38.7017 42.8887 37.349C42.9717 37.2689 43.0379 37.173 43.0834 37.0671C43.1289 36.9611 43.1529 36.8471 43.1539 36.7317C43.1549 36.6164 43.1329 36.502 43.0892 36.3952C43.0456 36.2885 42.9811 36.1915 42.8995 36.1099C42.8179 36.0283 42.7209 35.9638 42.6142 35.9202C42.5074 35.8765 42.393 35.8545 42.2777 35.8555C42.1623 35.8565 42.0483 35.8805 41.9423 35.926C41.8364 35.9715 41.7405 36.0377 41.6604 36.1207C39.9855 37.7993 39.0449 40.0737 39.0449 42.4449C39.0449 44.8161 39.9855 47.0905 41.6604 48.7691ZM46.1394 46.1682C46.31 46.1654 46.4759 46.1127 46.6169 46.0168C46.7579 45.9209 46.8678 45.7858 46.9331 45.6283C46.9983 45.4707 47.0161 45.2975 46.9842 45.13C46.9524 44.9625 46.8722 44.8079 46.7536 44.6853C46.1604 44.0904 45.8272 43.2846 45.8272 42.4445C45.8272 41.6043 46.1604 40.7985 46.7536 40.2036C46.9119 40.0398 46.9994 39.8203 46.9975 39.5926C46.9955 39.3648 46.9041 39.1469 46.743 38.9858C46.582 38.8248 46.3641 38.7334 46.1363 38.7314C45.9085 38.7295 45.6891 38.817 45.5253 38.9753C44.6063 39.8961 44.0901 41.1439 44.0901 42.4449C44.0901 43.7459 44.6063 44.9937 45.5253 45.9145C45.6059 45.9952 45.7017 46.0591 45.8071 46.1026C45.9125 46.1462 46.0254 46.1684 46.1394 46.1682Z" fill="#1C8CCB"/>
</svg>
