<svg width="20" height="20" viewBox="0 0 20 20" fill="none" xmlns="http://www.w3.org/2000/svg">
<path d="M5.83301 8.35733C6.22586 8.33333 6.71017 8.33333 7.33301 8.33333H12.6663C13.2892 8.33333 13.7735 8.33333 14.1663 8.35733M5.83301 8.35733C5.34274 8.38725 4.99492 8.45458 4.69803 8.60583C4.22762 8.8455 3.84517 9.22792 3.60549 9.69833C3.33301 10.2332 3.33301 10.9332 3.33301 12.3333V13.5C3.33301 14.9002 3.33301 15.6002 3.60549 16.135C3.84517 16.6054 4.22762 16.9878 4.69803 17.2275C5.23281 17.5 5.93287 17.5 7.33301 17.5H12.6663C14.0665 17.5 14.7665 17.5 15.3013 17.2275C15.7718 16.9878 16.1542 16.6054 16.3938 16.135C16.6663 15.6002 16.6663 14.9002 16.6663 13.5V12.3333C16.6663 10.9332 16.6663 10.2332 16.3938 9.69833C16.1542 9.22792 15.7718 8.8455 15.3013 8.60583C15.0044 8.45458 14.6566 8.38725 14.1663 8.35733M5.83301 8.35733V6.66667C5.83301 4.36548 7.69849 2.5 9.99967 2.5C12.3008 2.5 14.1663 4.36548 14.1663 6.66667V8.35733" stroke="#E5CDAD" stroke-linecap="round" stroke-linejoin="round"/>
</svg>
