<svg width="19" height="18" viewBox="0 0 19 18" fill="none" xmlns="http://www.w3.org/2000/svg">
<path d="M9.00002 16.5H2.24999C1.83598 16.5 1.5 16.164 1.5 15.75V2.25002C1.5 1.83602 1.83602 1.50004 2.24999 1.50004H9.00002C9.41476 1.50004 9.75 1.1648 9.75 0.750054C9.75 0.335309 9.41476 0 9.00002 0H2.24999C1.00949 0 0 1.00953 0 2.25002V15.75C0 16.9905 1.00949 18 2.24999 18H9.00002C9.41476 18 9.75 17.6648 9.75 17.25C9.75 16.8353 9.41476 16.5 9.00002 16.5Z" fill="#880015"/>
<path d="M17.8365 8.46617L13.2765 3.96616C12.9825 3.67516 12.507 3.67893 12.216 3.97368C11.925 4.26842 11.928 4.74317 12.2235 5.03417L15.4822 8.25016H6.74998C6.33524 8.25016 6 8.5854 6 9.00014C6 9.41489 6.33524 9.75016 6.74998 9.75016H15.4822L12.2235 12.9661C11.928 13.2572 11.9258 13.7319 12.216 14.0266C12.2857 14.0974 12.3689 14.1536 12.4606 14.192C12.5522 14.2304 12.6506 14.2501 12.75 14.2501C12.9405 14.2501 13.131 14.1781 13.2765 14.0341L17.8365 9.53411C17.9072 9.4643 17.9634 9.38116 18.0017 9.28949C18.0401 9.19783 18.0599 9.09947 18.06 9.00011C18.06 8.79919 17.9797 8.60794 17.8365 8.46617Z" fill="#880015"/>
</svg>
