<svg width="17" height="19" viewBox="0 0 17 19" fill="none" xmlns="http://www.w3.org/2000/svg">
<path d="M16.652 14.0168L15.4971 12.3478C15.3394 12.1209 15.2546 11.851 15.2539 11.5744V6.7845C15.2539 4.98514 14.5423 3.25947 13.2757 1.98713C12.0091 0.714793 10.2913 0 8.5 0C6.70875 0 4.99086 0.714793 3.72426 1.98713C2.45765 3.25947 1.74608 4.98514 1.74608 6.7845V11.5744C1.74543 11.851 1.66059 12.1209 1.50294 12.3478L0.348019 14.0168C0.173146 14.2114 0.0581522 14.4528 0.0169433 14.7117C-0.0242656 14.9706 0.0100754 15.2359 0.115814 15.4756C0.221552 15.7153 0.394158 15.9191 0.61276 16.0624C0.831362 16.2056 1.0866 16.2822 1.3476 16.2828H5.19058C5.34559 17.0496 5.75975 17.7391 6.36289 18.2343C6.96602 18.7295 7.72103 19 8.5 19C9.27897 19 10.034 18.7295 10.6371 18.2343C11.2402 17.7391 11.6544 17.0496 11.8094 16.2828H15.6524C15.9134 16.2822 16.1686 16.2056 16.3872 16.0624C16.6058 15.9191 16.7784 15.7153 16.8842 15.4756C16.9899 15.2359 17.0243 14.9706 16.9831 14.7117C16.9418 14.4528 16.8269 14.2114 16.652 14.0168ZM8.5 17.6397C8.08197 17.6385 7.67454 17.5075 7.33355 17.2646C6.99257 17.0216 6.73474 16.6787 6.59539 16.2828H10.4046C10.2653 16.6787 10.0074 17.0216 9.66644 17.2646C9.32546 17.5075 8.91803 17.6385 8.5 17.6397ZM1.3476 14.9259C1.37813 14.8974 1.40532 14.8656 1.42865 14.8309L2.61058 13.1212C2.92588 12.6675 3.09556 12.1277 3.09686 11.5744V6.7845C3.09686 5.34501 3.66612 3.96448 4.67941 2.94661C5.69269 1.92873 7.067 1.3569 8.5 1.3569C9.933 1.3569 11.3073 1.92873 12.3206 2.94661C13.3339 3.96448 13.9031 5.34501 13.9031 6.7845V11.5744C13.9044 12.1277 14.0741 12.6675 14.3894 13.1212L15.5714 14.8309C15.5947 14.8656 15.6219 14.8974 15.6524 14.9259H1.3476Z" fill="black"/>
</svg>
