<svg width="24" height="25" viewBox="0 0 24 25" fill="none" xmlns="http://www.w3.org/2000/svg">
<path d="M15.5799 12.1435C15.5799 14.1235 13.9799 15.7235 11.9999 15.7235C10.0199 15.7235 8.41992 14.1235 8.41992 12.1435C8.41992 10.1635 10.0199 8.56348 11.9999 8.56348C13.9799 8.56348 15.5799 10.1635 15.5799 12.1435Z" stroke="#E5CDAD" stroke-width="1.5" stroke-linecap="round" stroke-linejoin="round"/>
<path d="M11.9998 20.4135C15.5298 20.4135 18.8198 18.3335 21.1098 14.7335C22.0098 13.3235 22.0098 10.9535 21.1098 9.54352C18.8198 5.94352 15.5298 3.86353 11.9998 3.86353C8.46984 3.86353 5.17984 5.94352 2.88984 9.54352C1.98984 10.9535 1.98984 13.3235 2.88984 14.7335C5.17984 18.3335 8.46984 20.4135 11.9998 20.4135Z" stroke="#E5CDAD" stroke-width="1.5" stroke-linecap="round" stroke-linejoin="round"/>
</svg>
