<svg width="19" height="21" viewBox="0 0 19 21" fill="none" xmlns="http://www.w3.org/2000/svg">
<path d="M9.12279 11.2326C6.02651 11.2326 3.50651 8.71256 3.50651 5.61628C3.50651 2.52 6.02651 0 9.12279 0C12.2191 0 14.7391 2.52 14.7391 5.61628C14.7391 8.71256 12.2191 11.2326 9.12279 11.2326ZM9.12279 1.46512C6.83721 1.46512 4.97163 3.3307 4.97163 5.61628C4.97163 7.90186 6.83721 9.76744 9.12279 9.76744C11.4084 9.76744 13.274 7.90186 13.274 5.61628C13.274 3.3307 11.4084 1.46512 9.12279 1.46512ZM17.513 21C17.1126 21 16.7805 20.6679 16.7805 20.2674C16.7805 16.8977 13.3423 14.1628 9.12279 14.1628C4.90326 14.1628 1.46512 16.8977 1.46512 20.2674C1.46512 20.6679 1.13302 21 0.732558 21C0.332093 21 0 20.6679 0 20.2674C0 16.0967 4.09256 12.6977 9.12279 12.6977C14.153 12.6977 18.2456 16.0967 18.2456 20.2674C18.2456 20.6679 17.9135 21 17.513 21Z" fill="#880015"/>
</svg>
