<svg width="20" height="20" viewBox="0 0 20 20" fill="none" xmlns="http://www.w3.org/2000/svg">
<path d="M4.47647 19.1664C4.25732 19.1664 4.03974 19.098 3.85403 18.9637C3.68513 18.8415 3.55589 18.6723 3.4824 18.4772C3.4089 18.282 3.39439 18.0696 3.44066 17.8663L4.72733 12.1986L0.363798 8.37198C0.206863 8.23505 0.0936545 8.055 0.0382569 7.85422C-0.0171408 7.65345 -0.0122819 7.44081 0.0522289 7.24278C0.116344 7.04485 0.23714 6.87009 0.399642 6.74017C0.562144 6.61025 0.759204 6.53088 0.96639 6.5119L6.73984 5.98771L9.02251 0.645913C9.19075 0.253443 9.57404 0 9.99995 0C10.4259 0 10.8091 0.253443 10.9775 0.645014L13.2601 5.98771L19.0326 6.51183C19.4577 6.55011 19.816 6.83777 19.9477 7.24274C20.0794 7.64775 19.9576 8.09194 19.6368 8.37195L15.2733 12.1979L16.56 17.8654C16.6543 18.2821 16.4926 18.7131 16.1468 18.963C15.8018 19.2129 15.3417 19.2321 14.9784 19.0138L9.99995 16.0387L5.02152 19.0155C4.8532 19.1154 4.66565 19.1664 4.47647 19.1664ZM9.99995 14.7571C10.1892 14.7571 10.3765 14.8079 10.545 14.9079L15.2435 17.718L14.0291 12.3686C13.9866 12.1816 13.9955 11.9866 14.0548 11.8043C14.114 11.6219 14.2215 11.459 14.3659 11.3328L18.486 7.71943L13.035 7.22446C12.8432 7.20728 12.6596 7.13825 12.504 7.02476C12.3484 6.91127 12.2266 6.75759 12.1516 6.58019L9.99995 1.53921L7.84568 6.58093C7.694 6.94012 7.35645 7.18688 6.96492 7.22274L1.51312 7.71775L5.63313 11.3311C5.92822 11.5895 6.05728 11.9862 5.96986 12.3679L4.75647 17.7171L9.4549 14.9079C9.62322 14.8079 9.81077 14.7571 9.99995 14.7571ZM6.69574 6.091C6.69574 6.091 6.69574 6.09189 6.69484 6.09268L6.69574 6.091ZM13.3025 6.08853L13.3034 6.09021C13.3034 6.08932 13.3034 6.08932 13.3025 6.08853H13.3025Z" fill="#880015"/>
</svg>
