<svg width="20" height="20" viewBox="0 0 20 20" fill="none" xmlns="http://www.w3.org/2000/svg">
<path d="M18.2486 11.7238C18.2402 11.7189 18.2316 11.7144 18.2231 11.7097C18.2428 11.4772 18.2535 11.2422 18.2535 11.0047C18.2535 7.70451 16.3063 4.85104 13.5008 3.53155C13.5008 3.52151 13.5015 3.51159 13.5015 3.50148C13.5015 1.56765 11.9338 0 10 0C8.0662 0 6.49855 1.56765 6.49855 3.50148C6.49855 3.51151 6.49925 3.52144 6.49929 3.53155C3.69371 4.85108 1.74649 7.70455 1.74649 11.0047C1.74649 11.2422 1.75715 11.4771 1.77692 11.7095C1.7684 11.7144 1.75977 11.719 1.75125 11.7238C0.0766101 12.6907 -0.497216 14.8322 0.469695 16.5069C1.11829 17.6302 2.2952 18.2582 3.50539 18.2582C4.09933 18.2582 4.70144 18.1069 5.25285 17.7885C5.26226 17.7831 5.27121 17.7771 5.28054 17.7716C6.61894 18.7079 8.24635 19.2581 10.0001 19.2581C11.7538 19.2581 13.3812 18.7079 14.7196 17.7716C14.729 17.7771 14.7378 17.7831 14.7472 17.7885C15.2987 18.1069 15.9007 18.2583 16.4947 18.2583C17.7048 18.2583 18.8818 17.6302 19.5303 16.507C20.4972 14.8323 19.9234 12.6907 18.2486 11.7238ZM10 1.50062C11.1033 1.50062 12.0009 2.39816 12.0009 3.50148C12.0009 4.60479 11.1033 5.50233 10 5.50233C8.89674 5.50233 7.99917 4.60479 7.99917 3.50148C7.99921 2.39816 8.89678 1.50062 10 1.50062ZM5.43476 15.2741C5.2964 15.7903 4.96535 16.2218 4.50246 16.489C4.19812 16.6648 3.85332 16.7577 3.50539 16.7577C2.79098 16.7577 2.12574 16.3741 1.76926 15.7566C1.21762 14.8012 1.54618 13.5751 2.50168 13.0234C2.80602 12.8476 3.15086 12.7548 3.49879 12.7548H3.49894C4.2132 12.7548 4.87839 13.1383 5.23488 13.7558C5.5021 14.2186 5.57308 14.7578 5.43476 15.2741ZM13.5967 16.7174C12.5547 17.3758 11.3212 17.7575 10.0001 17.7575C8.67885 17.7575 7.44534 17.3758 6.40327 16.7174C7.1289 15.6423 7.22655 14.2043 6.53444 13.0054C5.88593 11.8822 4.70902 11.2541 3.49891 11.2541H3.49875C3.41676 11.2541 3.33469 11.2573 3.25254 11.2631C3.24911 11.177 3.24732 11.0908 3.24715 11.0046C3.24715 8.41779 4.70941 6.16647 6.85058 5.03268C7.4187 6.19901 8.61538 7.00291 10 7.00291C11.3847 7.00291 12.5813 6.19908 13.1495 5.03268C15.2906 6.16647 16.7529 8.41775 16.7529 11.0046C16.7529 11.0911 16.7507 11.1772 16.7475 11.263C16.6657 11.2572 16.5836 11.2542 16.5016 11.2541H16.5013C15.2912 11.2541 14.114 11.8822 13.4656 13.0055C12.7734 14.2044 12.8711 15.6423 13.5967 16.7174ZM18.2307 15.7566C17.8742 16.3741 17.209 16.7577 16.4946 16.7577C16.1467 16.7577 15.8019 16.6648 15.4974 16.489C14.542 15.9373 14.2134 14.7112 14.7651 13.7558C15.1215 13.1383 15.7868 12.7548 16.5012 12.7547H16.5015C16.8493 12.7547 17.194 12.8475 17.4984 13.0233C18.4539 13.575 18.7823 14.8011 18.2307 15.7566Z" fill="#880015"/>
</svg>
