<svg width="16" height="22" viewBox="0 0 16 22" fill="none" xmlns="http://www.w3.org/2000/svg">
<path d="M13.3571 7.85714V5.27214C13.3551 3.87452 12.7989 2.53474 11.8107 1.54647C10.8224 0.558202 9.48262 0.00207825 8.085 0H7.62929C6.23166 0.00207825 4.89188 0.558202 3.90361 1.54647C2.91534 2.53474 2.35922 3.87452 2.35714 5.27214V7.85714C1.73199 7.85714 1.13244 8.10548 0.690391 8.54753C0.248341 8.98958 0 9.58913 0 10.2143V17.5214C0.00207726 18.7086 0.474592 19.8465 1.31404 20.686C2.15348 21.5254 3.29142 21.9979 4.47857 22H11.2357C12.4229 21.9979 13.5608 21.5254 14.4002 20.686C15.2397 19.8465 15.7122 18.7086 15.7143 17.5214V10.2143C15.7143 9.58913 15.4659 8.98958 15.0239 8.54753C14.5818 8.10548 13.9823 7.85714 13.3571 7.85714ZM3.92857 5.27214C3.92857 4.29065 4.31847 3.34936 5.01249 2.65534C5.7065 1.96132 6.6478 1.57143 7.62929 1.57143H8.085C9.06649 1.57143 10.0078 1.96132 10.7018 2.65534C11.3958 3.34936 11.7857 4.29065 11.7857 5.27214V7.85714H3.92857V5.27214ZM14.1429 17.5214C14.1429 18.2924 13.8366 19.0319 13.2914 19.5771C12.7462 20.1223 12.0067 20.4286 11.2357 20.4286H4.47857C3.70755 20.4286 2.96811 20.1223 2.42291 19.5771C1.87772 19.0319 1.57143 18.2924 1.57143 17.5214V10.2143C1.57143 10.0059 1.65421 9.80605 1.80156 9.6587C1.94891 9.51135 2.14876 9.42857 2.35714 9.42857H13.3571C13.5655 9.42857 13.7654 9.51135 13.9127 9.6587C14.0601 9.80605 14.1429 10.0059 14.1429 10.2143V17.5214Z" fill="#880015"/>
<path d="M8.64328 14.7084V17.2856C8.64328 17.494 8.5605 17.6938 8.41315 17.8412C8.2658 17.9885 8.06595 18.0713 7.85756 18.0713C7.64918 18.0713 7.44933 17.9885 7.30198 17.8412C7.15463 17.6938 7.07185 17.494 7.07185 17.2856V14.7084C6.77227 14.5355 6.53813 14.2685 6.40575 13.9489C6.27337 13.6293 6.25015 13.275 6.33968 12.9408C6.42921 12.6067 6.6265 12.3114 6.90094 12.1009C7.17538 11.8903 7.51164 11.7761 7.85756 11.7761C8.20349 11.7761 8.53975 11.8903 8.81419 12.1009C9.08863 12.3114 9.28591 12.6067 9.37545 12.9408C9.46498 13.275 9.44175 13.6293 9.30937 13.9489C9.17699 14.2685 8.94286 14.5355 8.64328 14.7084Z" fill="#880015"/>
</svg>
