<svg width="20" height="16" viewBox="0 0 20 16" fill="none" xmlns="http://www.w3.org/2000/svg">
<path d="M2.39717 14.2761L2.39716 14.2761L0.166712 3.47203L0.16671 3.47202C0.130596 3.29717 0.153387 3.11527 0.231525 2.95474C0.309663 2.7942 0.438751 2.66405 0.598642 2.58459C0.758534 2.50514 0.940231 2.48086 1.11538 2.51553C1.29052 2.55021 1.44926 2.6419 1.56681 2.77628L1.56682 2.77629L5.57026 7.35219L5.71553 7.51825L5.81651 7.32208L9.28199 0.589838L9.28219 0.589448C9.34979 0.457164 9.45263 0.346125 9.57934 0.26858C9.70606 0.191036 9.85173 0.15 10.0003 0.15C10.1489 0.15 10.2945 0.191035 10.4212 0.26858C10.548 0.346125 10.6508 0.457164 10.7184 0.589449L10.7186 0.589832L14.1841 7.32271L14.285 7.51889L14.4303 7.35283L18.4338 2.77693L18.4341 2.77655C18.5511 2.64192 18.7096 2.55006 18.8845 2.51546C19.0595 2.48085 19.241 2.50547 19.4005 2.58543L19.4011 2.58576C19.5611 2.66499 19.6903 2.79501 19.7685 2.95547C19.8466 3.11594 19.8694 3.2978 19.8332 3.47259L19.8332 3.47266L17.6021 14.2761L17.6021 14.2761C17.5646 14.4583 17.4653 14.622 17.3211 14.7395C17.1768 14.857 16.9965 14.9212 16.8105 14.9212H3.18883C3.0028 14.9212 2.82246 14.857 2.67824 14.7395L2.58349 14.8558L2.67824 14.7395C2.53402 14.622 2.43475 14.4583 2.39717 14.2761ZM5.28114 9.47782L5.28107 9.47774L2.74522 6.57963L2.37029 6.15114L2.48543 6.70874L3.82268 13.1848L3.84739 13.3044H3.96958H16.0304H16.1526L16.1773 13.1848L17.5139 6.70808L17.629 6.15048L17.2541 6.579L14.7182 9.47775L14.7175 9.47854C14.6315 9.57824 14.5221 9.65504 14.3991 9.70205C14.2761 9.74905 14.1434 9.76479 14.0128 9.74785L14.0116 9.74771C13.7461 9.7154 13.5138 9.55324 13.3915 9.31555L10.133 2.98519L9.99965 2.72609L9.86628 2.98519L6.60782 9.31555L6.60778 9.31563C6.54752 9.43287 6.45948 9.53357 6.35134 9.60896C6.24321 9.68435 6.11827 9.73213 5.98742 9.74812C5.85658 9.76412 5.7238 9.74785 5.60069 9.70074C5.47758 9.65362 5.36787 9.57709 5.28114 9.47782Z" fill="#880015" stroke="white" stroke-width="0.3"/>
</svg>
