<svg width="227" height="227" viewBox="0 0 227 227" fill="none" xmlns="http://www.w3.org/2000/svg">
<circle cx="113.723" cy="113.723" r="113.277" fill="white"/>
<circle cx="113.723" cy="113.723" r="91.8704" fill="#FEE5C3"/>
<circle cx="113.723" cy="113.723" r="67.7879" fill="#FBB75D"/>
<path d="M119.029 111.141H137.276C139.576 111.141 141.461 113.026 141.461 115.326C141.461 117.631 139.576 119.512 137.276 119.512C139.576 119.512 141.461 121.397 141.461 123.697C141.461 126.002 139.576 127.883 137.276 127.883C139.576 127.883 141.461 129.768 141.461 132.068C141.461 134.373 139.576 136.258 137.276 136.258H134.091C136.391 136.258 138.276 138.139 138.276 140.443C138.276 142.744 136.391 144.629 134.091 144.629H115.159C110.774 144.629 103.022 142.444 99.644 139.589" stroke="#1F0005" stroke-width="2" stroke-miterlimit="10" stroke-linecap="round" stroke-linejoin="round"/>
<path d="M99.644 115.352C107.654 110.244 110.104 104.154 111.643 94.4359C112.128 91.3582 113.032 88.4269 117.421 90.6197C120.303 92.0584 122.8 96.9135 121.384 102.253L119.029 111.14M137.276 119.511H131.571M137.276 127.882H131.571M134.091 136.257H131.571" stroke="#1F0005" stroke-width="2" stroke-miterlimit="10" stroke-linecap="round" stroke-linejoin="round"/>
<path d="M99.6442 115.353V139.589M92.9658 118.934V118.942M104.188 84.3147L101.776 82.1758M128.778 84.3147L131.19 82.1758M116.483 81.0793V77.8555M96.5665 93.9169L99.7904 94.0515M136.399 93.9169L133.175 94.0515M97.2359 143.532H88.0607C86.7373 143.532 85.6523 142.447 85.6523 141.124V113.818C85.6523 112.494 86.7373 111.409 88.0607 111.409H97.2359C98.5593 111.409 99.6442 112.494 99.6442 113.818V141.124C99.6442 142.448 98.5593 143.532 97.2359 143.532Z" stroke="#1F0005" stroke-width="2" stroke-miterlimit="10" stroke-linecap="round" stroke-linejoin="round"/>
</svg>
