<svg width="40" height="31" viewBox="0 0 40 31" fill="none" xmlns="http://www.w3.org/2000/svg">
<mask id="path-1-inside-1_881_2691" fill="white">
<path d="M4.87811 22.7102C4.78524 22.6121 4.67304 22.5343 4.54859 22.4817C4.42414 22.4291 4.29014 22.4029 4.15505 22.4047C2.99408 22.4454 2.03679 21.5187 2.03679 20.3679V4.07358C2.03679 2.95334 2.95335 2.03679 4.07358 2.03679H28.5151C29.6353 2.03679 30.5518 2.95334 30.5518 4.07358V13.2391C30.5518 13.7992 31.0101 14.2575 31.5702 14.2575C32.1304 14.2575 32.5886 13.7992 32.5886 13.2391V4.07358C32.5886 1.82293 30.7657 0 28.5151 0H4.07358C1.82293 0 0 1.82293 0 4.07358V20.3679C0 22.4658 1.59888 24.1971 3.70696 24.4211"/>
</mask>
<path d="M4.87811 22.7102C4.78524 22.6121 4.67304 22.5343 4.54859 22.4817C4.42414 22.4291 4.29014 22.4029 4.15505 22.4047C2.99408 22.4454 2.03679 21.5187 2.03679 20.3679V4.07358C2.03679 2.95334 2.95335 2.03679 4.07358 2.03679H28.5151C29.6353 2.03679 30.5518 2.95334 30.5518 4.07358V13.2391C30.5518 13.7992 31.0101 14.2575 31.5702 14.2575C32.1304 14.2575 32.5886 13.7992 32.5886 13.2391V4.07358C32.5886 1.82293 30.7657 0 28.5151 0H4.07358C1.82293 0 0 1.82293 0 4.07358V20.3679C0 22.4658 1.59888 24.1971 3.70696 24.4211" fill="#880015"/>
<path d="M4.15505 22.4047L4.15239 22.2047L4.14804 22.2048L4.15505 22.4047ZM5.02337 22.5727C4.91149 22.4545 4.77634 22.3608 4.62643 22.2975L4.47075 22.6659C4.56974 22.7077 4.65899 22.7696 4.73286 22.8477L5.02337 22.5727ZM4.62643 22.2975C4.47652 22.2341 4.31511 22.2025 4.15239 22.2047L4.15771 22.6047C4.26517 22.6032 4.37176 22.6241 4.47075 22.6659L4.62643 22.2975ZM4.14804 22.2048C3.09982 22.2416 2.23679 21.4051 2.23679 20.3679H1.83679C1.83679 21.6323 2.88835 22.6493 4.16206 22.6046L4.14804 22.2048ZM2.23679 20.3679V4.07358H1.83679V20.3679H2.23679ZM2.23679 4.07358C2.23679 3.0638 3.0638 2.23679 4.07358 2.23679V1.83679C2.84289 1.83679 1.83679 2.84289 1.83679 4.07358H2.23679ZM4.07358 2.23679H28.5151V1.83679H4.07358V2.23679ZM28.5151 2.23679C29.5248 2.23679 30.3518 3.0638 30.3518 4.07358H30.7518C30.7518 2.84289 29.7457 1.83679 28.5151 1.83679V2.23679ZM30.3518 4.07358V13.2391H30.7518V4.07358H30.3518ZM30.3518 13.2391C30.3518 13.9097 30.8997 14.4575 31.5702 14.4575V14.0575C31.1206 14.0575 30.7518 13.6888 30.7518 13.2391H30.3518ZM31.5702 14.4575C32.2408 14.4575 32.7886 13.9097 32.7886 13.2391H32.3886C32.3886 13.6888 32.0199 14.0575 31.5702 14.0575V14.4575ZM32.7886 13.2391V4.07358H32.3886V13.2391H32.7886ZM32.7886 4.07358C32.7886 1.71247 30.8762 -0.2 28.5151 -0.2V0.2C30.6553 0.2 32.3886 1.93338 32.3886 4.07358H32.7886ZM28.5151 -0.2H4.07358V0.2H28.5151V-0.2ZM4.07358 -0.2C1.71247 -0.2 -0.2 1.71247 -0.2 4.07358H0.2C0.2 1.93338 1.93338 0.2 4.07358 0.2V-0.2ZM-0.2 4.07358V20.3679H0.2V4.07358H-0.2ZM-0.2 20.3679C-0.2 22.5716 1.47956 24.3855 3.68582 24.62L3.72809 24.2222C1.7182 24.0086 0.2 22.36 0.2 20.3679H-0.2Z" fill="white" mask="url(#path-1-inside-1_881_2691)"/>
<mask id="path-3-inside-2_881_2691" fill="white">
<path d="M3.05453 24.4414H13.2385C13.7986 24.4414 14.2569 23.9832 14.2569 23.4231C14.2569 22.8629 13.7986 22.4047 13.2385 22.4047H3.05453C2.49441 22.4047 2.03613 22.8629 2.03613 23.4231M26.1619 16.5998L22.5568 18.8708C22.3226 18.993 22.1189 19.1662 21.9559 19.3597H18.6767C17.3528 19.3597 16.2835 20.4188 16.2835 21.7121V25.1543C16.2835 26.4477 17.3528 27.5068 18.6767 27.5068H21.9559C22.1189 27.7003 22.3124 27.8633 22.4855 27.9549L26.2128 30.2972C26.5489 30.4805 26.9155 30.562 27.272 30.562C27.8423 30.562 28.4227 30.3379 28.8708 29.8899C29.3087 29.4621 29.5124 28.8307 29.5124 28.2197V18.6671C29.5124 17.9848 29.268 17.3025 28.7486 16.8544C28.0154 16.2332 27.0377 16.1212 26.1415 16.61L26.1619 16.5998ZM21.3856 25.4598H18.6869C18.4934 25.4598 18.3305 25.3173 18.3305 25.1441V21.702C18.3305 21.5288 18.4934 21.3863 18.6869 21.3863H21.3856V25.4598ZM27.496 28.627C27.496 28.627 27.496 28.7289 27.4043 28.79C27.3636 28.8104 27.2821 28.8511 27.2414 28.8307L23.4937 26.4782L23.4224 26.4273L23.3308 20.9687L23.3613 20.8669L27.1701 18.4431C27.1701 18.4431 27.2516 18.4125 27.2821 18.4125C27.3331 18.4125 27.3738 18.4329 27.3942 18.4431C27.4858 18.494 27.4858 18.5755 27.4858 18.606V28.627H27.496ZM36.0811 16.4878C35.9814 16.3988 35.8653 16.3304 35.7392 16.2864C35.6131 16.2423 35.4796 16.2236 35.3462 16.2311C35.2129 16.2387 35.0823 16.2724 34.9621 16.3305C34.8418 16.3885 34.7341 16.4696 34.6451 16.5693C34.5562 16.6689 34.4878 16.7851 34.4437 16.9111C34.3997 17.0372 34.3809 17.1708 34.3885 17.3041C34.396 17.4374 34.4298 17.568 34.4878 17.6883C34.5458 17.8086 34.627 17.9163 34.7266 18.0052C36.3255 19.4309 37.2522 21.4779 37.2522 23.6064C37.2522 25.7348 36.3357 27.792 34.7266 29.2177C34.3091 29.5945 34.2683 30.2361 34.6451 30.6537C34.8488 30.8777 35.1238 30.9999 35.4089 30.9999C35.6533 30.9999 35.8876 30.9184 36.0811 30.7453C38.1179 28.9326 39.289 26.3357 39.289 23.6064C39.289 20.8771 38.1179 18.2903 36.0811 16.4776V16.4878Z"/>
</mask>
<path d="M3.05453 24.4414H13.2385C13.7986 24.4414 14.2569 23.9832 14.2569 23.4231C14.2569 22.8629 13.7986 22.4047 13.2385 22.4047H3.05453C2.49441 22.4047 2.03613 22.8629 2.03613 23.4231M26.1619 16.5998L22.5568 18.8708C22.3226 18.993 22.1189 19.1662 21.9559 19.3597H18.6767C17.3528 19.3597 16.2835 20.4188 16.2835 21.7121V25.1543C16.2835 26.4477 17.3528 27.5068 18.6767 27.5068H21.9559C22.1189 27.7003 22.3124 27.8633 22.4855 27.9549L26.2128 30.2972C26.5489 30.4805 26.9155 30.562 27.272 30.562C27.8423 30.562 28.4227 30.3379 28.8708 29.8899C29.3087 29.4621 29.5124 28.8307 29.5124 28.2197V18.6671C29.5124 17.9848 29.268 17.3025 28.7486 16.8544C28.0154 16.2332 27.0377 16.1212 26.1415 16.61L26.1619 16.5998ZM21.3856 25.4598H18.6869C18.4934 25.4598 18.3305 25.3173 18.3305 25.1441V21.702C18.3305 21.5288 18.4934 21.3863 18.6869 21.3863H21.3856V25.4598ZM27.496 28.627C27.496 28.627 27.496 28.7289 27.4043 28.79C27.3636 28.8104 27.2821 28.8511 27.2414 28.8307L23.4937 26.4782L23.4224 26.4273L23.3308 20.9687L23.3613 20.8669L27.1701 18.4431C27.1701 18.4431 27.2516 18.4125 27.2821 18.4125C27.3331 18.4125 27.3738 18.4329 27.3942 18.4431C27.4858 18.494 27.4858 18.5755 27.4858 18.606V28.627H27.496ZM36.0811 16.4878C35.9814 16.3988 35.8653 16.3304 35.7392 16.2864C35.6131 16.2423 35.4796 16.2236 35.3462 16.2311C35.2129 16.2387 35.0823 16.2724 34.9621 16.3305C34.8418 16.3885 34.7341 16.4696 34.6451 16.5693C34.5562 16.6689 34.4878 16.7851 34.4437 16.9111C34.3997 17.0372 34.3809 17.1708 34.3885 17.3041C34.396 17.4374 34.4298 17.568 34.4878 17.6883C34.5458 17.8086 34.627 17.9163 34.7266 18.0052C36.3255 19.4309 37.2522 21.4779 37.2522 23.6064C37.2522 25.7348 36.3357 27.792 34.7266 29.2177C34.3091 29.5945 34.2683 30.2361 34.6451 30.6537C34.8488 30.8777 35.1238 30.9999 35.4089 30.9999C35.6533 30.9999 35.8876 30.9184 36.0811 30.7453C38.1179 28.9326 39.289 26.3357 39.289 23.6064C39.289 20.8771 38.1179 18.2903 36.0811 16.4776V16.4878Z" fill="#880015"/>
<path d="M26.1619 16.5998L26.2685 16.769L26.0725 16.4209L26.1619 16.5998ZM22.5568 18.8708L22.6493 19.0481L22.6565 19.0444L22.6634 19.04L22.5568 18.8708ZM21.9559 19.3597V19.5597H22.049L22.1089 19.4885L21.9559 19.3597ZM21.9559 27.5068L22.1089 27.378L22.049 27.3068H21.9559V27.5068ZM22.4855 27.9549L22.5919 27.7856L22.5856 27.7816L22.5791 27.7782L22.4855 27.9549ZM26.2128 30.2972L26.1062 30.4669L26.1171 30.4728L26.2128 30.2972ZM28.8708 29.8899L28.7311 29.7468L28.7294 29.7484L28.8708 29.8899ZM28.7486 16.8544L28.8793 16.703L28.8779 16.7018L28.7486 16.8544ZM26.1415 16.61L26.0458 16.4344L26.231 16.7889L26.1415 16.61ZM21.3856 25.4598V25.6598H21.5856V25.4598H21.3856ZM21.3856 21.3863H21.5856V21.1863H21.3856V21.3863ZM27.496 28.627L27.696 28.627V28.427H27.496V28.627ZM27.4043 28.79L27.4938 28.9689L27.5049 28.9633L27.5153 28.9564L27.4043 28.79ZM27.2414 28.8307L27.1351 29.0001L27.1433 29.0053L27.152 29.0096L27.2414 28.8307ZM23.4937 26.4782L23.3773 26.6413L23.3874 26.6476L23.4937 26.4782ZM23.4224 26.4273L23.2225 26.4307L23.2241 26.5315L23.3062 26.5901L23.4224 26.4273ZM23.3308 20.9687L23.1392 20.9112L23.1303 20.941L23.1308 20.9721L23.3308 20.9687ZM23.3613 20.8669L23.2539 20.6981L23.1911 20.7381L23.1698 20.8094L23.3613 20.8669ZM27.1701 18.4431L27.0999 18.2558L27.0804 18.2632L27.0627 18.2744L27.1701 18.4431ZM27.3942 18.4431L27.4914 18.2681L27.4836 18.2642L27.3942 18.4431ZM27.4858 28.627H27.2858V28.827H27.4858V28.627ZM36.0811 16.4878L35.9479 16.637L36.2811 16.9344V16.4878H36.0811ZM34.7266 18.0052L34.5934 18.1544L34.5935 18.1545L34.7266 18.0052ZM34.7266 29.2177L34.594 29.068L34.5926 29.0692L34.7266 29.2177ZM34.6451 30.6537L34.4967 30.7876L34.4971 30.7882L34.6451 30.6537ZM36.0811 30.7453L35.9481 30.5959L35.9477 30.5963L36.0811 30.7453ZM36.0811 16.4776L36.214 16.3282L35.8811 16.0319V16.4776H36.0811ZM3.05453 24.6414H13.2385V24.2414H3.05453V24.6414ZM13.2385 24.6414C13.909 24.6414 14.4569 24.0936 14.4569 23.4231H14.0569C14.0569 23.8727 13.6881 24.2414 13.2385 24.2414V24.6414ZM14.4569 23.4231C14.4569 22.7525 13.909 22.2047 13.2385 22.2047V22.6047C13.6881 22.6047 14.0569 22.9734 14.0569 23.4231H14.4569ZM13.2385 22.2047H3.05453V22.6047H13.2385V22.2047ZM3.05453 22.2047C2.38395 22.2047 1.83613 22.7525 1.83613 23.4231H2.23613C2.23613 22.9734 2.60487 22.6047 3.05453 22.6047V22.2047ZM26.0553 16.4306L22.4502 18.7016L22.6634 19.04L26.2685 16.769L26.0553 16.4306ZM22.4643 18.6935C22.204 18.8293 21.9804 19.0201 21.803 19.2308L22.1089 19.4885C22.2573 19.3122 22.4411 19.1568 22.6493 19.0481L22.4643 18.6935ZM21.9559 19.1597H18.6767V19.5597H21.9559V19.1597ZM18.6767 19.1597C17.2451 19.1597 16.0835 20.3055 16.0835 21.7121H16.4835C16.4835 20.532 17.4604 19.5597 18.6767 19.5597V19.1597ZM16.0835 21.7121V25.1543H16.4835V21.7121H16.0835ZM16.0835 25.1543C16.0835 26.5609 17.2451 27.7068 18.6767 27.7068V27.3068C17.4604 27.3068 16.4835 26.3344 16.4835 25.1543H16.0835ZM18.6767 27.7068H21.9559V27.3068H18.6767V27.7068ZM21.803 27.6356C21.9782 27.8438 22.191 28.0253 22.3919 28.1317L22.5791 27.7782C22.4338 27.7012 22.2595 27.5568 22.1089 27.378L21.803 27.6356ZM22.3791 28.1242L26.1064 30.4666L26.3192 30.1279L22.5919 27.7856L22.3791 28.1242ZM26.1171 30.4728C26.4852 30.6736 26.8853 30.762 27.272 30.762V30.362C26.9458 30.362 26.6126 30.2875 26.3086 30.1216L26.1171 30.4728ZM27.272 30.762C27.8946 30.762 28.5261 30.5174 29.0123 30.0313L28.7294 29.7484C28.3193 30.1585 27.79 30.362 27.272 30.362V30.762ZM29.0106 30.0329C29.4961 29.5587 29.7124 28.8704 29.7124 28.2197H29.3124C29.3124 28.7911 29.1214 29.3656 28.7311 29.7468L29.0106 30.0329ZM29.7124 28.2197V18.6671H29.3124V28.2197H29.7124ZM29.7124 18.6671C29.7124 17.9407 29.4523 17.1973 28.8793 16.703L28.618 17.0058C29.0837 17.4077 29.3124 18.029 29.3124 18.6671H29.7124ZM28.8779 16.7018C28.0809 16.0266 27.0138 15.9064 26.0458 16.4344L26.2373 16.7856C27.0617 16.3359 27.9498 16.4398 28.6193 17.007L28.8779 16.7018ZM26.231 16.7889L26.2514 16.7787L26.0725 16.4209L26.0521 16.4311L26.231 16.7889ZM21.3856 25.2598H18.6869V25.6598H21.3856V25.2598ZM18.6869 25.2598C18.5796 25.2598 18.5305 25.184 18.5305 25.1441H18.1304C18.1304 25.4505 18.4072 25.6598 18.6869 25.6598V25.2598ZM18.5305 25.1441V21.702H18.1304V25.1441H18.5305ZM18.5305 21.702C18.5305 21.6621 18.5796 21.5863 18.6869 21.5863V21.1863C18.4072 21.1863 18.1304 21.3956 18.1304 21.702H18.5305ZM18.6869 21.5863H21.3856V21.1863H18.6869V21.5863ZM21.1856 21.3863V25.4598H21.5856V21.3863H21.1856ZM27.496 28.627C27.296 28.627 27.296 28.627 27.296 28.6269C27.296 28.6268 27.296 28.6268 27.296 28.6267C27.296 28.6266 27.296 28.6265 27.296 28.6264C27.296 28.6261 27.296 28.6259 27.296 28.6257C27.296 28.6253 27.296 28.6249 27.296 28.6245C27.296 28.6237 27.296 28.623 27.2961 28.6223C27.2961 28.621 27.2962 28.62 27.2962 28.6192C27.2963 28.6177 27.2964 28.617 27.2964 28.6169C27.2964 28.6168 27.2964 28.6172 27.2962 28.6179C27.2961 28.6186 27.2958 28.6194 27.2955 28.6202C27.2945 28.6233 27.294 28.6232 27.2934 28.6236L27.5153 28.9564C27.6063 28.8957 27.6517 28.8141 27.6735 28.751C27.6844 28.7197 27.6899 28.6919 27.6927 28.6709C27.6942 28.6604 27.695 28.6512 27.6954 28.6439C27.6957 28.6402 27.6958 28.6369 27.6959 28.6341C27.6959 28.6327 27.696 28.6314 27.696 28.6302C27.696 28.6296 27.696 28.6291 27.696 28.6285C27.696 28.6283 27.696 28.628 27.696 28.6278C27.696 28.6277 27.696 28.6275 27.696 28.6274C27.696 28.6273 27.696 28.6273 27.696 28.6272C27.696 28.6271 27.696 28.627 27.496 28.627ZM27.3149 28.6111C27.3045 28.6163 27.2949 28.6211 27.2847 28.6257C27.2744 28.6304 27.266 28.6338 27.2596 28.6359C27.2523 28.6383 27.2532 28.6373 27.2602 28.6366C27.2642 28.6363 27.2725 28.6358 27.2839 28.6373C27.2953 28.6388 27.3121 28.6425 27.3308 28.6518L27.152 29.0096C27.2085 29.0379 27.2634 29.038 27.2964 29.035C27.3315 29.0318 27.3629 29.0231 27.3861 29.0154C27.4322 29 27.475 28.9783 27.4938 28.9689L27.3149 28.6111ZM27.3477 28.6613L23.6 26.3088L23.3874 26.6476L27.1351 29.0001L27.3477 28.6613ZM23.61 26.3155L23.5387 26.2646L23.3062 26.5901L23.3775 26.641L23.61 26.3155ZM23.6224 26.424L23.5307 20.9654L23.1308 20.9721L23.2225 26.4307L23.6224 26.424ZM23.5223 21.0262L23.5529 20.9244L23.1698 20.8094L23.1392 20.9112L23.5223 21.0262ZM23.4687 21.0356L27.2775 18.6118L27.0627 18.2744L23.2539 20.6981L23.4687 21.0356ZM27.1701 18.4431C27.2403 18.6304 27.2403 18.6304 27.2403 18.6304C27.2403 18.6304 27.2403 18.6304 27.2403 18.6304C27.2403 18.6304 27.2403 18.6304 27.2403 18.6304C27.2402 18.6304 27.2402 18.6304 27.2402 18.6304C27.2402 18.6304 27.2402 18.6304 27.2402 18.6304C27.2402 18.6304 27.2403 18.6304 27.2405 18.6303C27.2408 18.6302 27.2414 18.63 27.2423 18.6297C27.244 18.629 27.2466 18.6281 27.2499 18.6269C27.2566 18.6246 27.2655 18.6215 27.2749 18.6185C27.2847 18.6155 27.2928 18.6131 27.2984 18.6118C27.3083 18.6094 27.2997 18.6125 27.2821 18.6125V18.2125C27.2493 18.2125 27.219 18.2195 27.2051 18.2228C27.1868 18.2272 27.1689 18.2326 27.1544 18.2371C27.1396 18.2418 27.1263 18.2464 27.1168 18.2497C27.1119 18.2514 27.1079 18.2529 27.1051 18.2539C27.1036 18.2545 27.1024 18.2549 27.1016 18.2552C27.1011 18.2554 27.1008 18.2555 27.1005 18.2556C27.1004 18.2557 27.1002 18.2557 27.1001 18.2557C27.1001 18.2558 27.1 18.2558 27.1 18.2558C27.1 18.2558 27.1 18.2558 27.0999 18.2558C27.0999 18.2558 27.0999 18.2558 27.0999 18.2558C27.0999 18.2558 27.0999 18.2558 27.1701 18.4431ZM27.2821 18.6125C27.281 18.6125 27.2822 18.6123 27.2864 18.6137C27.2909 18.6152 27.2952 18.6172 27.3047 18.622L27.4836 18.2642C27.4617 18.2533 27.384 18.2125 27.2821 18.2125V18.6125ZM27.297 18.6179C27.2997 18.6194 27.2977 18.6188 27.2943 18.6147C27.291 18.6108 27.2885 18.6063 27.2871 18.6024C27.2858 18.5989 27.2856 18.5969 27.2856 18.5972C27.2857 18.5978 27.2858 18.5989 27.2858 18.606H27.6858C27.6858 18.564 27.6862 18.3765 27.4913 18.2683L27.297 18.6179ZM27.2858 18.606V28.627H27.6858V18.606H27.2858ZM27.4858 28.827H27.496V28.427H27.4858V28.827ZM36.2143 16.3386C36.095 16.2322 35.956 16.1503 35.8051 16.0976L35.6732 16.4752C35.7745 16.5106 35.8678 16.5655 35.9479 16.637L36.2143 16.3386ZM35.8051 16.0976C35.6542 16.0449 35.4945 16.0224 35.3349 16.0314L35.3576 16.4308C35.4647 16.4247 35.5719 16.4398 35.6732 16.4752L35.8051 16.0976ZM35.3349 16.0314C35.1753 16.0405 35.0191 16.0809 34.8752 16.1503L35.0489 16.5106C35.1456 16.464 35.2504 16.4369 35.3576 16.4308L35.3349 16.0314ZM34.8752 16.1503C34.7312 16.2197 34.6024 16.3168 34.4959 16.4361L34.7943 16.7024C34.8658 16.6224 34.9523 16.5572 35.0489 16.5106L34.8752 16.1503ZM34.4959 16.4361C34.3895 16.5553 34.3076 16.6943 34.2549 16.8452L34.6325 16.9771C34.6679 16.8758 34.7229 16.7825 34.7943 16.7024L34.4959 16.4361ZM34.2549 16.8452C34.2022 16.9961 34.1797 17.1559 34.1888 17.3154L34.5882 17.2928C34.5821 17.1856 34.5972 17.0784 34.6325 16.9771L34.2549 16.8452ZM34.1888 17.3154C34.1979 17.475 34.2382 17.6312 34.3077 17.7752L34.668 17.6014C34.6213 17.5048 34.5942 17.3999 34.5882 17.2928L34.1888 17.3154ZM34.3077 17.7752C34.3771 17.9191 34.4742 18.048 34.5934 18.1544L34.8598 17.856C34.7798 17.7845 34.7146 17.698 34.668 17.6014L34.3077 17.7752ZM34.5935 18.1545C36.1504 19.5428 37.0522 21.5357 37.0522 23.6064H37.4522C37.4522 21.4201 36.5006 19.3191 34.8597 17.8559L34.5935 18.1545ZM37.0522 23.6064C37.0522 25.6778 36.16 27.6804 34.594 29.068L34.8592 29.3674C36.5114 27.9035 37.4522 25.7918 37.4522 23.6064H37.0522ZM34.5926 29.0692C34.0952 29.5181 34.044 30.286 34.4967 30.7876L34.7936 30.5197C34.4927 30.1862 34.5229 29.6709 34.8606 29.3662L34.5926 29.0692ZM34.4971 30.7882C34.7373 31.0524 35.0654 31.1999 35.4089 31.1999V30.7999C35.1822 30.7999 34.9603 30.703 34.7931 30.5191L34.4971 30.7882ZM35.4089 31.1999C35.6997 31.1999 35.9822 31.1022 36.2144 30.8944L35.9477 30.5963C35.793 30.7347 35.607 30.7999 35.4089 30.7999V31.1999ZM36.214 30.8947C38.2933 29.0442 39.489 26.393 39.489 23.6064H39.089C39.089 26.2783 37.9425 28.8209 35.9481 30.5959L36.214 30.8947ZM39.489 23.6064C39.489 20.8195 38.2931 18.1786 36.214 16.3282L35.9481 16.627C37.9426 18.4021 39.089 20.9346 39.089 23.6064H39.489ZM35.8811 16.4776V16.4878H36.2811V16.4776H35.8811Z" fill="white" mask="url(#path-3-inside-2_881_2691)"/>
<path d="M31.7771 19.9756L31.777 19.9755C31.3914 19.6542 31.3365 19.0655 31.6574 18.6804C31.9782 18.2954 32.557 18.2393 32.953 18.5612C34.4575 19.8152 35.3199 21.6506 35.3199 23.6167C35.3199 25.5828 34.4576 27.428 32.9435 28.6818C32.7669 28.8209 32.5546 28.8938 32.3545 28.8938C32.0877 28.8938 31.8314 28.7839 31.6476 28.5637C31.3257 28.1678 31.3818 27.5891 31.7666 27.2682C32.8589 26.3632 33.4831 25.0314 33.4831 23.6167C33.4831 22.2018 32.8587 20.8805 31.7771 19.9756ZM8.25932 7.22891H24.2176C24.7937 7.22891 25.248 7.652 25.248 8.1473C25.248 8.6426 24.7937 9.0657 24.2176 9.0657H8.25932C7.68323 9.0657 7.22891 8.6426 7.22891 8.1473C7.22891 7.652 7.68323 7.22891 8.25932 7.22891ZM8.25932 11.3025H24.2176C24.7937 11.3025 25.248 11.7256 25.248 12.2209C25.248 12.7162 24.7937 13.1393 24.2176 13.1393H8.25932C7.68323 13.1393 7.22891 12.7162 7.22891 12.2209C7.22891 11.7256 7.68323 11.3025 8.25932 11.3025ZM8.1473 15.3761H20.368C20.8729 15.3761 21.2864 15.7896 21.2864 16.2945C21.2864 16.7993 20.8729 17.2129 20.368 17.2129H8.1473C7.64241 17.2129 7.22891 16.7993 7.22891 16.2945C7.22891 15.7896 7.64241 15.3761 8.1473 15.3761Z" fill="#880015" stroke="white" stroke-width="0.2"/>
</svg>
